HIERARCHY
ROOT Hips
{
	OFFSET 0.000000 0.000000 0.000000
	CHANNELS 6 Xposition Yposition Zposition Xrotation Yrotation Zrotation
	JOINT LeftUpLeg_virtual
	{
		OFFSET 0.000000 0.000000 0.000000
		CHANNELS 3 Xrotation Yrotation Zrotation
		JOINT LeftUpLeg
		{
			OFFSET 11.394100 -6.187798 -0.413800
			CHANNELS 3 Xrotation Yrotation Zrotation
			JOINT LeftLeg
			{
				OFFSET 0.430247 -32.302673 3.732800
				CHANNELS 3 Xrotation Yrotation Zrotation
				JOINT LeftFoot
				{
					OFFSET -0.430247 -48.264931 -6.423300
					CHANNELS 3 Xrotation Yrotation Zrotation
					JOINT LeftToeBase
					{
						OFFSET 4.230900 -16.068199 23.438400
						CHANNELS 3 Xrotation Yrotation Zrotation
						JOINT LeftToe_End
						{
							OFFSET 4.510700 0.695400 19.974600
							CHANNELS 3 Xrotation Yrotation Zrotation
							End Site
							{
								OFFSET 0 0 0
							}
						}
					}
				}
			}
		}
	}
	JOINT RightUpLeg_virtual
	{
		OFFSET 0.000000 0.000000 0.000000
		CHANNELS 3 Xrotation Yrotation Zrotation
		JOINT RightUpLeg
		{
			OFFSET -11.333700 -6.187798 -0.413800
			CHANNELS 3 Xrotation Yrotation Zrotation
			JOINT RightLeg
			{
				OFFSET -0.430392 -32.302628 3.733000
				CHANNELS 3 Xrotation Yrotation Zrotation
				JOINT RightFoot
				{
					OFFSET 0.430392 -48.264973 -6.423500
					CHANNELS 3 Xrotation Yrotation Zrotation
					JOINT RightToeBase
					{
						OFFSET -4.230900 -16.068199 23.438400
						CHANNELS 3 Xrotation Yrotation Zrotation
						JOINT RightToe_End
						{
							OFFSET -4.510700 0.695400 19.974600
							CHANNELS 3 Xrotation Yrotation Zrotation
							End Site
							{
								OFFSET 0 0 0
							}
						}
					}
				}
			}
		}
	}
	JOINT Spine_virtual
	{
		OFFSET 0.000000 0.000000 0.000000
		CHANNELS 3 Xrotation Yrotation Zrotation
		JOINT Spine
		{
			OFFSET -0.002400 12.777504 0.315300
			CHANNELS 3 Xrotation Yrotation Zrotation
			JOINT Spine1
			{
				OFFSET -0.002067 5.816869 0.032633
				CHANNELS 3 Xrotation Yrotation Zrotation
				JOINT Spine1_split
				{
					OFFSET -0.002067 5.816869 0.032633
					CHANNELS 3 Xrotation Yrotation Zrotation
					JOINT Spine2
					{
						OFFSET -0.002067 5.816869 0.032633
						CHANNELS 3 Xrotation Yrotation Zrotation
						JOINT Neck_virtual
						{
							OFFSET 0.000000 0.000000 0.000000
							CHANNELS 3 Xrotation Yrotation Zrotation
							JOINT Neck
							{
								OFFSET -0.003700 21.199493 -0.826900
								CHANNELS 3 Xrotation Yrotation Zrotation
								JOINT Head
								{
									OFFSET 0.000000 20.442200 4.834800
									CHANNELS 3 Xrotation Yrotation Zrotation
									JOINT HeadTop_End
									{
										OFFSET 0.000000 34.668396 4.968400
										CHANNELS 3 Xrotation Yrotation Zrotation
										End Site
										{
											OFFSET 0 0 0
										}
									}
								}
							}
						}
						JOINT LeftShoulder_virtual
						{
							OFFSET 0.000000 0.000000 0.000000
							CHANNELS 3 Xrotation Yrotation Zrotation
							JOINT LeftShoulder
							{
								OFFSET 3.288150 8.794197 -1.372250
								CHANNELS 3 Xrotation Yrotation Zrotation
								JOINT LeftShoulder_split
								{
									OFFSET 3.288150 8.794197 -1.372250
									CHANNELS 3 Xrotation Yrotation Zrotation
									JOINT LeftArm
									{
										OFFSET 11.953299 -2.279007 -0.146200
										CHANNELS 3 Xrotation Yrotation Zrotation
										JOINT LeftForeArm
										{
											OFFSET 18.448900 0.000000 0.000000
											CHANNELS 3 Xrotation Yrotation Zrotation
											JOINT LeftHand
											{
												OFFSET 29.527798 0.000000 0.000000
												CHANNELS 3 Xrotation Yrotation Zrotation
												End Site
												{
													OFFSET 0 0 0
												}
											}
										}
									}
								}
							}
						}
						JOINT RightShoulder_virtual
						{
							OFFSET 0.000000 0.000000 0.000000
							CHANNELS 3 Xrotation Yrotation Zrotation
							JOINT RightShoulder
							{
								OFFSET -3.249400 8.794197 -1.372250
								CHANNELS 3 Xrotation Yrotation Zrotation
								JOINT RightShoulder_split
								{
									OFFSET -3.249400 8.794197 -1.372250
									CHANNELS 3 Xrotation Yrotation Zrotation
									JOINT RightArm
									{
										OFFSET -11.953299 -2.279007 -0.146200
										CHANNELS 3 Xrotation Yrotation Zrotation
										JOINT RightForeArm
										{
											OFFSET -18.448900 0.000000 0.000000
											CHANNELS 3 Xrotation Yrotation Zrotation
											JOINT RightHand
											{
												OFFSET -29.527802 0.000000 0.000000
												CHANNELS 3 Xrotation Yrotation Zrotation
												End Site
												{
													OFFSET 0 0 0
												}
											}
										}
									}
								}
							}
						}
					}
				}
			}
		}
	}
}
MOTION
Frames: 11
Frame Time: 0.03333333
5.055139 94.479332 1.030266 0.000000 0.000000 0.000000 154.932555 -86.656311 155.498395 -31.533337 33.347046 33.194654 26.013390 -7.562040 1.402213 -3.124618 3.320891 -16.484537 0.577658 -0.448563 -0.587289 0.000000 0.000000 0.000000 162.777314 -86.979946 163.878573 -28.555921 -14.240886 -19.384161 11.673954 9.706692 -4.162420 8.273974 12.861612 16.465349 4.193669 0.542504 1.446489 0.000000 0.000000 0.000000 63.390917 -88.734211 64.319891 6.169697 -0.252441 -7.104518 1.439593 0.105391 -0.919172 0.850417 0.426377 0.225685 0.000000 0.000000 0.000000 1.945412 -0.393714 -1.324719 -10.343166 4.794575 3.792380 29.755132 75.754093 -33.046303 0.000000 0.000000 0.000000 3.177750 -0.482718 -0.842399 5.506662 -4.468471 10.992814 -2.071841 -3.532627 1.314450 -38.496138 6.319597 4.388209 -4.058574 -10.330225 -0.207109 0.000000 0.000000 0.000000 2.710482 -0.352078 -1.504459 -1.461073 0.273927 -18.580090 2.390179 1.679646 6.597784 -60.616590 54.164985 53.888164 179.743736 41.529449 -178.799695 0.000000 0.000000 0.000000 
5.060523 94.481857 1.051826 0.000000 0.000000 0.000000 155.223863 -86.659118 155.798664 -31.542964 33.354665 33.216750 26.011894 -7.577735 1.399690 -3.125891 3.309402 -16.482056 0.586734 -0.447150 -0.590398 0.000000 0.000000 0.000000 162.897348 -87.009582 164.006407 -28.523570 -14.190474 -19.393183 11.630555 9.704533 -4.160284 8.274238 12.865478 16.492416 4.175620 0.533413 1.436522 0.000000 0.000000 0.000000 64.356747 -88.752434 65.309982 6.174844 -0.254707 -7.097826 1.438397 0.086291 -0.925418 0.821321 0.342870 0.220254 0.000000 0.000000 0.000000 1.952404 -0.407904 -1.323823 -10.321635 4.783048 3.792843 29.830896 75.824129 -33.156955 0.000000 0.000000 0.000000 3.181991 -0.500112 -0.840365 5.516084 -4.486845 11.026603 -2.007945 -3.506680 1.360630 -38.488143 6.342220 4.375439 -4.026331 -10.353637 -0.190300 0.000000 0.000000 0.000000 2.700360 -0.370863 -1.498194 -1.464788 0.231125 -18.611830 2.342448 1.686321 6.560247 -60.787406 54.235144 53.956596 179.727631 41.460843 -178.799941 0.000000 0.000000 0.000000 
5.063238 94.478348 1.071903 0.000000 0.000000 0.000000 155.470583 -86.670565 156.058826 -31.540608 33.342395 33.218741 26.006222 -7.599308 1.393788 -3.117355 3.302838 -16.501027 0.605326 -0.445542 -0.599807 0.000000 0.000000 0.000000 162.822885 -87.049846 163.936124 -28.500544 -14.167339 -19.431647 11.593343 9.674229 -4.154965 8.227915 12.840484 16.494808 4.191167 0.533894 1.433981 0.000000 0.000000 0.000000 63.848069 -88.749613 64.824287 6.186679 -0.256957 -7.078336 1.448387 0.049735 -0.930338 0.806421 0.285098 0.233092 0.000000 0.000000 0.000000 1.966841 -0.442662 -1.324736 -10.276413 4.742015 3.814805 30.170417 75.946608 -33.559988 0.000000 0.000000 0.000000 3.196660 -0.540212 -0.840248 5.534822 -4.499951 11.087275 -1.956763 -3.502034 1.443805 -38.492125 6.453521 4.280290 -3.995668 -10.454951 -0.177574 0.000000 0.000000 0.000000 2.704033 -0.409557 -1.488428 -1.469022 0.174077 -18.668688 2.305742 1.664882 6.540584 -60.985373 54.330989 54.018337 179.705788 41.438990 -178.814530 0.000000 0.000000 0.000000 
5.062655 94.470749 1.086945 0.000000 0.000000 0.000000 155.648782 -86.679404 156.251451 -31.520517 33.313831 33.197325 25.993064 -7.618753 1.383100 -3.097435 3.300725 -16.532623 0.626687 -0.443165 -0.615605 0.000000 0.000000 0.000000 162.530444 -87.092493 163.648682 -28.501080 -14.169343 -19.500176 11.564983 9.632867 -4.143591 8.172743 12.802922 16.499155 4.197891 0.543170 1.431268 0.000000 0.000000 0.000000 61.966768 -88.724205 62.959857 6.204632 -0.261195 -7.050166 1.467830 -0.006634 -0.932895 0.815382 0.253151 0.265656 0.000000 0.000000 0.000000 1.983784 -0.500488 -1.326608 -10.211532 4.674677 3.859145 30.749235 76.120573 -34.223913 0.000000 0.000000 0.000000 3.215749 -0.606350 -0.840919 5.562387 -4.504164 11.181838 -1.929075 -3.512622 1.533548 -38.521126 6.656696 4.118303 -3.971951 -10.610100 -0.165453 0.000000 0.000000 0.000000 2.717087 -0.470205 -1.475006 -1.475514 0.102982 -18.746158 2.274852 1.616679 6.538191 -61.169282 54.419621 54.078221 179.681896 41.471454 -178.840294 0.000000 0.000000 0.000000 
5.058114 94.461563 1.100971 0.000000 0.000000 0.000000 155.658413 -86.683351 156.272310 -31.483965 33.271498 33.154985 25.964146 -7.627093 1.367447 -3.068573 3.300399 -16.563909 0.648553 -0.440289 -0.634444 0.000000 0.000000 0.000000 162.008781 -87.135770 163.132826 -28.526840 -14.188872 -19.594839 11.545336 9.605112 -4.124309 8.128874 12.768809 16.543920 4.151018 0.557000 1.424760 0.000000 0.000000 0.000000 59.201942 -88.681660 60.207387 6.227115 -0.269447 -7.015922 1.492337 -0.086177 -0.932812 0.830974 0.256760 0.283760 0.000000 0.000000 0.000000 1.995841 -0.583527 -1.328493 -10.130315 4.582157 3.926732 31.506242 76.332131 -35.073452 0.000000 0.000000 0.000000 3.234967 -0.701460 -0.842440 5.598928 -4.496821 11.314212 -1.921776 -3.543049 1.598366 -38.584937 6.936882 3.912253 -3.957764 -10.778219 -0.151288 0.000000 0.000000 0.000000 2.731345 -0.554477 -1.457952 -1.485490 0.016678 -18.841762 2.245108 1.558704 6.542252 -61.330809 54.463833 54.150918 179.663277 41.552217 -178.874472 0.000000 0.000000 0.000000 
5.050479 94.454987 1.109379 0.000000 0.000000 0.000000 155.378607 -86.688201 155.996726 -31.427869 33.215524 33.094831 25.919040 -7.618610 1.349120 -3.034254 3.295671 -16.582251 0.672594 -0.438322 -0.653285 0.000000 0.000000 0.000000 161.266258 -87.181518 162.396121 -28.559864 -14.214535 -19.702816 11.531626 9.603467 -4.099745 8.096651 12.733815 16.634818 4.059087 0.570691 1.418143 0.000000 0.000000 0.000000 55.982051 -88.626697 56.997092 6.249291 -0.281946 -6.976904 1.516073 -0.192636 -0.931782 0.828869 0.295918 0.281793 0.000000 0.000000 0.000000 1.998448 -0.693750 -1.331609 -10.040574 4.466256 4.013870 32.376008 76.563060 -36.028592 0.000000 0.000000 0.000000 3.250561 -0.825763 -0.843706 5.644989 -4.476113 11.481689 -1.933916 -3.592873 1.641298 -38.685648 7.267448 3.677087 -3.952301 -10.925408 -0.133084 0.000000 0.000000 0.000000 2.738540 -0.664939 -1.437576 -1.500848 -0.080279 -18.956965 2.219419 1.501306 6.549834 -61.471101 54.441710 54.259832 179.654193 41.659393 -178.908199 0.000000 0.000000 0.000000 
5.042137 94.455521 1.118958 0.000000 0.000000 0.000000 154.770994 -86.705440 155.386626 -31.360974 33.154134 33.026775 25.862264 -7.590208 1.329367 -3.006867 3.276400 -16.579796 0.700357 -0.437990 -0.666988 0.000000 0.000000 0.000000 160.348717 -87.235859 161.484414 -28.587972 -14.236654 -19.817475 11.521489 9.619734 -4.073298 8.063144 12.675485 16.747043 3.976484 0.579633 1.426554 0.000000 0.000000 0.000000 52.452427 -88.557070 53.474132 6.269526 -0.296978 -6.931667 1.534271 -0.327786 -0.930414 0.816319 0.354381 0.272819 0.000000 0.000000 0.000000 1.989952 -0.830685 -1.336750 -9.944313 4.336499 4.113193 33.308599 76.803613 -37.031694 0.000000 0.000000 0.000000 3.260641 -0.978369 -0.843529 5.698426 -4.441687 11.680416 -1.956011 -3.619042 1.664154 -38.808343 7.614307 3.429597 -3.957897 -11.043391 -0.109967 0.000000 0.000000 0.000000 2.734700 -0.802874 -1.417116 -1.521731 -0.183895 -19.089892 2.200297 1.449559 6.548825 -61.609645 54.353556 54.408187 179.654479 41.769544 -178.933963 0.000000 0.000000 0.000000 
5.036025 94.462166 1.128044 0.000000 0.000000 0.000000 153.832758 -86.748388 154.440071 -31.296541 33.086270 32.958528 25.798401 -7.549302 1.311915 -2.991528 3.223410 -16.562068 0.726785 -0.439870 -0.667807 0.000000 0.000000 0.000000 159.173174 -87.307829 160.310291 -28.605276 -14.247546 -19.929703 11.515287 9.638604 -4.047022 8.012901 12.570231 16.849421 3.947572 0.580311 1.463159 0.000000 0.000000 0.000000 48.886304 -88.475170 49.913735 6.288777 -0.312094 -6.877150 1.542530 -0.490123 -0.929554 0.805468 0.405931 0.260749 0.000000 0.000000 0.000000 1.972708 -0.992934 -1.344200 -9.851389 4.201404 4.216465 34.284490 77.048400 -38.062001 0.000000 0.000000 0.000000 3.262574 -1.156471 -0.842172 5.756424 -4.395638 11.896071 -1.988140 -3.625925 1.679918 -38.939093 7.944963 3.188490 -3.975524 -11.132056 -0.083818 0.000000 0.000000 0.000000 2.723668 -0.966676 -1.400842 -1.546796 -0.287998 -19.236552 2.163193 1.400545 6.557800 -61.741918 54.229216 54.572033 179.664916 41.855317 -178.947432 0.000000 0.000000 0.000000 
5.033792 94.471596 1.131771 0.000000 0.000000 0.000000 152.630371 -86.817216 153.227726 -31.247989 33.016800 32.895970 25.735277 -7.506024 1.298773 -2.988482 3.116904 -16.544836 0.747819 -0.444346 -0.650069 0.000000 0.000000 0.000000 157.648047 -87.405801 158.781066 -28.606229 -14.240237 -20.029991 11.510707 9.650033 -4.025169 7.940131 12.402958 16.921090 3.961108 0.571183 1.526161 0.000000 0.000000 0.000000 45.594200 -88.382265 46.624541 6.307764 -0.325477 -6.810278 1.541507 -0.674425 -0.929970 0.789684 0.449968 0.244484 0.000000 0.000000 0.000000 1.953029 -1.176780 -1.353359 -9.764145 4.073589 4.311606 35.299849 77.294355 -39.118952 0.000000 0.000000 0.000000 3.256069 -1.355480 -0.840602 5.813687 -4.340335 12.106557 -2.034268 -3.633685 1.706489 -39.055804 8.254011 2.966847 -4.003474 -11.205906 -0.056721 0.000000 0.000000 0.000000 2.710499 -1.152574 -1.389327 -1.576045 -0.387875 -19.387145 2.104862 1.348617 6.570787 -61.863994 54.094087 54.720235 179.685284 41.911246 -178.947623 0.000000 0.000000 0.000000 
5.035785 94.483727 1.135899 0.000000 0.000000 0.000000 151.269948 -86.902191 151.857877 -31.228506 32.950595 32.842183 25.680015 -7.467790 1.291076 -2.988070 2.948896 -16.546405 0.761131 -0.450752 -0.609788 0.000000 0.000000 0.000000 155.806013 -87.523376 156.932831 -28.586604 -14.214215 -20.115254 11.505339 9.653503 -4.010064 7.846165 12.178192 16.961938 3.991183 0.553848 1.605428 0.000000 0.000000 0.000000 42.528077 -88.282968 43.563261 6.328037 -0.337021 -6.730283 1.536654 -0.875199 -0.931838 0.787814 0.491776 0.234461 0.000000 0.000000 0.000000 1.934862 -1.377304 -1.364039 -9.679036 3.965655 4.390264 36.374705 77.544094 -40.233199 0.000000 0.000000 0.000000 3.245123 -1.571250 -0.840668 5.865442 -4.274361 12.285407 -2.087544 -3.644543 1.749926 -39.144996 8.540777 2.769435 -4.033102 -11.284424 -0.031224 0.000000 0.000000 0.000000 2.697430 -1.356250 -1.381519 -1.609691 -0.484786 -19.537044 2.035367 1.292571 6.591427 -61.972922 53.975256 54.812763 179.714612 41.940862 -178.939154 0.000000 0.000000 0.000000 
5.038737 94.494827 1.141090 0.000000 0.000000 0.000000 149.812413 -86.993524 150.393963 -31.236975 32.891756 32.795679 25.639429 -7.431059 1.288660 -2.980778 2.727345 -16.564076 0.776945 -0.457450 -0.555851 0.000000 0.000000 0.000000 153.719131 -87.648976 154.842765 -28.553488 -14.168805 -20.187864 11.497292 9.658141 -4.002123 7.736428 11.916595 16.982167 4.027518 0.533283 1.683307 0.000000 0.000000 0.000000 39.639676 -88.175761 40.684831 6.351154 -0.347727 -6.638499 1.531692 -1.087658 -0.935960 0.793587 0.517917 0.225194 0.000000 0.000000 0.000000 1.923691 -1.589730 -1.375560 -9.598580 3.884428 4.442583 37.501362 77.789585 -41.401294 0.000000 0.000000 0.000000 3.233347 -1.798737 -0.843125 5.907827 -4.198605 12.414416 -2.139528 -3.657558 1.805837 -39.198797 8.803104 2.594375 -4.055212 -11.360147 -0.008039 0.000000 0.000000 0.000000 2.684722 -1.572693 -1.375386 -1.646308 -0.579357 -19.682191 1.956377 1.225154 6.623361 -62.072909 53.890596 54.845043 179.748258 41.955656 -178.925835 0.000000 0.000000 0.000000 
